<?xml version="1.0" encoding="utf-8"?>
<svg xmlns="http://www.w3.org/2000/svg" height="400" width="400" viewBox="0 0 400 400">
  <g>
    <path id="path1" transform="rotate(0,200,200) translate(49,139.257869555298) scale(0.396521455371374,0.396521455371374)  " fill="#F4981F" d="M72.625,78.5L64.21875,78.75 55.75,79.5 55.75,159.25 64.4375,160.375 73,160.75 82.40234375,160.10546875 90.609375,158.171875 97.62109375,154.94921875 103.4375,150.4375 108.00390625,144.59765625 111.265625,137.390625 113.22265625,128.81640625 113.875,118.875 113.25390625,109.3359375 111.390625,101.09375 108.28515625,94.1484375 103.9375,88.5 98.25390625,84.1250076293945 91.140625,81 82.59765625,79.125 72.625,78.5z M81.2734375,68.25L88.4503784179688,68.4306640625 95.176513671875,68.97265625 101.451835632324,69.8759765625 107.276359558105,71.140625 112.650077819824,72.7666015625 117.57299041748,74.75390625 122.045104980469,77.1025390625 126.06640625,79.8125 129.625061035156,82.8798828125 132.709228515625,86.3007888793945 135.318908691406,90.0752029418945 137.4541015625,94.203125 139.114807128906,98.6845703125 140.301025390625,103.51953125 141.012756347656,108.7080078125 141.25,114.25 140.975708007813,120.78125 140.15283203125,126.9375 138.781372070313,132.71875 136.861328125,138.125 134.392700195313,143.15625 131.37548828125,147.8125 127.809692382813,152.09375 123.6953125,156 119.085632324219,159.486328125 114.033935546875,162.5078125 108.540222167969,165.064453125 102.6044921875,167.15625 96.2267456054688,168.783203125 89.406982421875,169.9453125 82.1452026367188,170.642578125 74.44140625,170.875 65.4111328125,170.59375 55.75,169.75 55.75,205.375 55.765625,212.5 55.8125,218.875 55.890625,224.5625 56,229.625 56.25,230.9453125 56.875,232.03125 57.875,232.8828125 59.25,233.5 76.5,238.75 76.75,244.125 67.890625,243.9609375 59.4375,243.84375 51.390625,243.7734375 43.75,243.75 12.7500009536743,244.125 12.25,238.75 27.625,234.125 29.0546875,233.5078125 30.09375,232.65625 30.7421875,231.5703125 31,230.25 31.109375,224.953125 31.1875019073486,219.0625 31.234375,212.546875 31.25,205.375 31.25,104 31.234375,97.9375 31.1875019073486,92.5 31.109375,87.625 31,83.25 30.1875,80.5625076293945 28,79 12.5000009536743,74.125 12.25,68.75 28.18115234375,69.125 43.724609375,69.25 63.6953125,68.75 72.9091796875,68.375 81.2734375,68.25z M226.123336791992,65.875L236.115524291992,66.1640625 246.342086791992,67.03125 256.803039550781,68.4765625 267.498352050781,70.5 268.373352050781,71.375 260.998352050781,110.375 255.998336791992,111.25 247.873336791992,80.125 241.443649291992,78.2109451293945 235.279586791992,76.84375 229.381149291992,76.0234375 223.748336791992,75.75 215.916305541992,76.25 208.920211791992,77.75 202.760055541992,80.25 197.435836791992,83.75 193.142868041992,88.1406326293945 190.076461791992,93.3125 188.236618041992,99.265625 187.623336791992,106 187.838180541992,109.9375 188.482711791992,113.625 189.556930541992,117.0625 191.060836791992,120.25 195.092086791992,126.000007629395 200.310836791992,131 206.513961791992,135.375 213.498336791992,139.25 228.748336791992,146.375 245.498336791992,154.3125 253.232711791992,158.859375 260.185852050781,164.125 266.092102050781,170.3125 270.685852050781,177.625 272.408508300781,181.7265625 273.638977050781,186.15625 274.377258300781,190.9140625 274.623352050781,196 274.319641113281,202.03515625 273.408508300781,207.703125 271.889953613281,213.00390625 269.763977050781,217.9375 267.030578613281,222.50390625 263.689758300781,226.703125 259.741485595703,230.53515625 255.185836791992,234 250.147750854492,237.076171875 244.752243041992,239.7421875 238.999313354492,241.998046875 232.888961791992,243.84375 226.421188354492,245.279296875 219.595993041992,246.3046875 212.413375854492,246.919921875 204.873336791992,247.125 194.670211791992,246.703125 183.935836791992,245.4375 172.670211791992,243.328125 160.873336791992,240.375 160.123336791992,239.375 166.248336791992,196.875 171.873336791992,196 180.623336791992,231.5 187.287399291992,233.796875 194.029586791992,235.4375 200.849899291992,236.421875 207.748336791992,236.75 216.549118041992,236.234375 224.326461791992,234.6875 231.080368041992,232.109375 236.810836791992,228.5 241.377243041992,223.9375 244.638961791992,218.5 246.595993041992,212.1875 247.248336791992,205 247.037399291992,201.12109375 246.404586791992,197.484375 245.349899291992,194.08984375 243.873336791992,190.9375 239.920211791992,185.296875 234.810836791992,180.5 228.732711791992,176.328125 221.873336791992,172.5625 206.873336791992,165.5 189.873336791992,157.375 182.013961791992,152.640625 174.935836791992,147.1875 168.920211791992,140.71875 164.248336791992,132.9375 162.498336791992,128.54296875 161.248336791992,123.796882629395 160.498336791992,118.699226379395 160.248336791992,113.25 160.544235229492,107.75390625 161.431930541992,102.578125 162.911422729492,97.72265625 164.982711791992,93.1875 167.645797729492,88.97265625 170.900680541992,85.078125 174.747360229492,81.50390625 179.185836791992,78.25 184.061813354492,75.349609375 189.220993041992,72.8359375 194.663375854492,70.708984375 200.388961791992,68.96875 206.397750854492,67.615234375 212.689743041992,66.6484375 219.264938354492,66.068359375 226.123336791992,65.875z M333.998321533203,125L343.345977783203,125.58203125 352.013946533203,127.328125 360.002227783203,130.23828125 367.310821533203,134.3125 370.577423095703,136.7314453125 373.408477783203,139.33203125 375.803985595703,142.1142578125 377.763946533203,145.078125 379.288360595703,148.2236328125 380.377227783203,151.55078125 381.030548095703,155.0595703125 381.248321533203,158.75 380.607696533203,165.46875 378.685821533203,171.75 375.482696533203,177.59375 370.998321533203,183 365.232696533203,187.96875 358.185821533203,192.5 349.857696533203,196.59375 340.248321533203,200.25 340.248321533203,200.75 351.314727783203,201.8203125 361.013946533203,204.15625 369.345977783203,207.7578125 376.310821533203,212.625 379.255157470703,215.453125 381.806915283203,218.4375 383.966094970703,221.578125 385.732696533203,224.875 387.106719970703,228.328125 388.088165283203,231.9375 388.677032470703,235.703125 388.873321533203,239.625 388.442657470703,245.955078125 387.150665283203,252.0078125 384.997344970703,257.783203125 381.982696533203,263.28125 378.106719970703,268.501953125 373.369415283203,273.4453125 367.770782470703,278.111328125 361.310821533203,282.5 354.042266845703,286.51171875 346.017852783203,290.046875 337.237579345703,293.10546875 327.701446533203,295.6875 317.409454345703,297.79296875 306.361602783203,299.421875 294.557891845703,300.57421875 281.998321533203,301.25 280.623321533203,292 290.581329345703,291.1494140625 299.892852783203,289.97265625 308.557891845703,288.4697265625 316.576446533203,286.640625 323.948516845703,284.4853515625 330.674102783203,282.00390625 336.753204345703,279.1962890625 342.185821533203,276.0625 346.975860595703,272.6630859375 351.127227783203,269.05859375 354.639923095703,265.2490234375 357.513946533203,261.234375 359.749298095703,257.0146484375 361.345977783203,252.58984375 362.303985595703,247.9599609375 362.623321533203,243.125 361.959259033203,235.7890625 359.967071533203,229.28125 356.646759033203,223.6015625 351.998321533203,218.75 346.170196533203,214.8671875 339.310821533203,212.09375 331.420196533203,210.4296875 322.498321533203,209.875 314.810821533203,210.25 306.498321533203,211.375 305.623321533203,202.25 316.256134033203,200.6328125 325.779571533203,198.15625 334.193634033203,194.8203125 341.498321533203,190.625 344.662384033203,188.2265625 347.404571533203,185.65625 349.724884033203,182.9140625 351.623321533203,180 353.099884033203,176.9140625 354.154571533203,173.65625 354.787384033203,170.2265625 354.998321533203,166.625 354.447540283203,161.0234375 352.795196533203,155.96875 350.041290283203,151.4609375 346.185821533203,147.5 341.486602783203,144.2734375 336.201446533203,141.96875 330.330352783203,140.5859375 323.873321533203,140.125 315.037384033203,140.7109375 306.154571533203,142.46875 297.224884033203,145.3984375 288.248321533203,149.5 283.123321533203,141.25 289.332305908203,137.44140625 295.584259033203,134.140625 301.879180908203,131.34765625 308.217071533203,129.0625 314.597930908203,127.28515625 321.021759033203,126.015625 327.488555908203,125.25390625 333.998321533203,125z M468.496673583984,248.375L461.574798583984,248.46875 454.059173583984,248.75 438.996673583984,249.125 430.496673583984,248.75 426.777923583984,255 424.121673583984,261 422.527923583984,266.75 421.996673583984,272.25 422.551361083984,277.4453125 424.215423583984,282.03125 426.988861083984,286.0078125 430.871673583984,289.375 435.707611083984,292.0546875 441.340423583984,293.96875 447.770111083984,295.1171875 454.996673583984,295.5 463.777923583984,294.99609375 471.996673583984,293.484375 479.652923583984,290.96484375 486.746673583984,287.4375 489.940032958984,285.3212890625 492.707611083984,283.00390625 495.049407958984,280.4853515625 496.965423583984,277.765625 498.455657958984,274.8447265625 499.520111083984,271.72265625 500.158782958984,268.3994140625 500.371673583984,264.875 499.953704833984,261.16015625 498.699798583984,257.890625 496.609954833984,255.06640625 493.684173583984,252.6875 489.602142333984,250.80078125 484.043548583984,249.453125 477.008392333984,248.64453125 468.496673583984,248.375z M457.404876708984,134.375L452.030670166016,134.8828125 447.365081787109,136.40625 443.408111572266,138.9453125 440.159759521484,142.5 437.627471923828,147.0234375 435.818695068359,152.46875 434.733428955078,158.8359375 434.371673583984,166.125 434.763275146484,173.7890625 435.938079833984,180.53125 437.896087646484,186.3515625 440.637298583984,191.25 444.124481201172,195.1328125 448.320404052734,197.90625 453.225067138672,199.5703125 458.838470458984,200.125 464.212677001953,199.60546875 468.878265380859,198.046875 472.835235595703,195.44921875 476.083587646484,191.8125 478.615875244141,187.17578125 480.424652099609,181.578125 481.509918212891,175.01953125 481.871673583984,167.5 481.487518310547,160.21875 480.335052490234,153.75 478.414276123047,148.09375 475.725189208984,143.25 472.275238037109,139.3671875 468.071868896484,136.59375 463.115081787109,134.9296875 457.404876708984,134.375z M459.467376708984,125L462.676971435547,125.09375 466.415130615234,125.375 470.681854248047,125.84375 475.477142333984,126.5 480.015716552734,127.265625 484.025970458984,127.8125 487.507904052734,128.140625 490.461517333984,128.25 499.890960693359,128.2265625 508.894134521484,128.15625 517.471069335938,128.0390625 525.621704101563,127.875 526.246704101563,133 497.891204833984,140.75 502.093597412109,146.1875 505.095306396484,152.125 506.896331787109,158.5625 507.496673583984,165.5 507.277923583984,170.4033203125 506.621673583984,175.05078125 505.527923583984,179.4423828125 503.996673583984,183.578125 502.027923583984,187.4580078125 499.621673583984,191.08203125 496.777923583984,194.4501953125 493.496673583984,197.5625 486.051361083984,202.78515625 477.715423583984,206.515625 468.488861083984,208.75390625 458.371673583984,209.5 452.527923583984,209.265625 446.996673583984,208.5625 441.777923583984,207.390625 436.871673583984,205.75 433.918548583984,210.8984375 431.809173583984,215.46875 430.543548583984,219.4609375 430.121673583984,222.875 430.336517333984,224.42578125 430.981048583984,225.703125 432.055267333984,226.70703125 433.559173583984,227.4375 435.641204833984,227.95703125 438.449798583984,228.328125 441.984954833984,228.55078125 446.246673583984,228.625 453.840423583984,228.53125 462.621673583984,228.25 471.684173583984,227.96875 480.121673583984,227.875 489.629486083984,228.34765625 498.277923583984,229.765625 506.067016601563,232.12890625 512.996704101563,235.4375 516.043579101563,237.4423828125 518.684204101563,239.67578125 520.918579101563,242.1376953125 522.746704101563,244.828125 524.168579101563,247.7470703125 525.184204101563,250.89453125 525.793579101563,254.2705078125 525.996704101563,257.875 525.65087890625,263.3515625 524.613525390625,268.53125 522.884521484375,273.4140625 520.463989257813,278 517.351806640625,282.2890625 513.548034667969,286.28125 509.052734375,289.9765625 503.865814208984,293.375 498.238220214844,296.421875 492.420867919922,299.0625 486.413757324219,301.296875 480.216888427734,303.125 473.830261230469,304.546875 467.253875732422,305.5625 460.487731933594,306.171875 453.531829833984,306.375 442.559722900391,305.91015625 432.754730224609,304.515625 424.116851806641,302.19140625 416.646087646484,298.9375 413.417694091797,297.0087890625 410.619781494141,294.94140625 408.252288818359,292.7353515625 406.315277099609,290.390625 404.808685302734,287.9072265625 403.732574462891,285.28515625 403.086883544922,282.5244140625 402.871673583984,279.625 403.190032958984,275.9765625 404.145111083984,272.21875 405.736907958984,268.3515625 407.965423583984,264.375 410.830657958984,260.2890625 414.332611083984,256.09375 418.471282958984,251.7890625 423.246673583984,247.375 420.229095458984,246.10546875 417.613861083984,244.734375 415.400970458984,243.26171875 413.590423583984,241.6875 412.182220458984,240.01171875 411.176361083984,238.234375 410.572845458984,236.35546875 410.371673583984,234.375 410.650970458984,231.390625 411.488861083984,228.125 412.885345458984,224.578125 414.840423583984,220.75 417.354095458984,216.640625 420.426361083984,212.25 424.057220458984,207.578125 428.246673583984,202.625 423.676361083984,199.490234375 419.715423583984,196.0234375 416.363861083984,192.224609375 413.621673583984,188.09375 411.488861083984,183.630859375 409.965423583984,178.8359375 409.051361083984,173.708984375 408.746673583984,168.25 408.967834472656,163.494140625 409.631256103516,158.9765625 410.736999511719,154.697265625 412.285003662109,150.65625 414.275329589844,146.853515625 416.707916259766,143.2890625 419.582824707031,139.962890625 422.899993896484,136.875 430.492950439453,131.6796875 439.118499755859,127.96875 448.776641845703,125.7421875 459.467376708984,125z M592.822814941406,140.125L586.741638183594,140.46875 580.722717285156,141.5 574.766052246094,143.21875 568.871643066406,145.625 568.871643066406,233.125 573.939880371094,234.546875 579.039123535156,235.5625 584.169372558594,236.171875 589.330627441406,236.375 594.407592773438,236.173828125 599.158996582031,235.5703125 603.584838867188,234.564453125 607.685119628906,233.15625 611.459838867188,231.345703125 614.908996582031,229.1328125 618.032592773438,226.517578125 620.830627441406,223.5 625.442321777344,216.3671875 628.736389160156,207.84375 630.712829589844,197.9296875 631.371643066406,186.625 630.763488769531,176.234375 628.939025878906,167.0625 625.898254394531,159.109375 621.641174316406,152.375 619.062316894531,149.50390625 616.191101074219,147.015625 613.027404785156,144.91015625 609.571350097656,143.1875 605.822875976563,141.84765625 601.781921386719,140.890625 597.448608398438,140.31640625 592.822814941406,140.125z M568.369689941406,55.375L569.621643066406,56.375 569.445861816406,61.357421875 569.293518066406,66.9296875 569.164611816406,73.091796875 569.059143066406,79.84375 568.977111816406,87.185546875 568.918518066406,95.1171875 568.883361816406,103.638671875 568.871643066406,112.75 568.871643066406,138.125 573.878662109375,135.048828125 578.779602050781,132.3828125 583.574462890625,130.126953125 588.263244628906,128.28125 592.845947265625,126.845703125 597.322570800781,125.8203125 601.693115234375,125.205078125 605.957580566406,125 611.710632324219,125.24609375 617.153381347656,125.984375 622.285827636719,127.21484375 627.107971191406,128.9375 631.619812011719,131.15234375 635.821350097656,133.859375 639.712585449219,137.05859375 643.293518066406,140.75 646.505187988281,144.837890625 649.288635253906,149.2265625 651.643859863281,153.916015625 653.570861816406,158.90625 655.069641113281,164.197265625 656.140197753906,169.7890625 656.782531738281,175.681640625 656.996643066406,181.875 656.720703125,189.3798828125 655.892822265625,196.45703125 654.513061523438,203.1064453125 652.581359863281,209.328125 650.097778320313,215.1220703125 647.062255859375,220.48828125 643.474853515625,225.4267578125 639.335510253906,229.9375 634.707092285156,233.9658203125 629.652465820313,237.45703125 624.171569824219,240.4111328125 618.264465332031,242.828125 611.931091308594,244.7080078125 605.171508789063,246.05078125 597.985656738281,246.8564453125 590.373596191406,247.125 579.735778808594,246.6796875 568.689514160156,245.34375 557.234802246094,243.1171875 545.371643066406,240 545.481018066406,231.4921875 545.559143066406,221.84375 545.606018066406,211.0546875 545.621643066406,199.125 545.621643066406,125 545.590393066406,111.414070129395 545.496643066406,98.28125 545.340393066406,85.6015625 545.121643066406,73.375 528.246643066406,68.375 527.621643066406,64.25 548.065490722656,60.0937576293945 568.369689941406,55.375z M722.373352050781,125L731.654602050781,125.34375 740.498352050781,126.375 748.904602050781,128.09375 756.873352050781,130.5 753.529602050781,145.15625 750.498352050781,160.625 745.748352050781,161.5 737.748352050781,137.625 730.185852050781,136.125 721.998352050781,135.625 716.408508300781,135.91015625 711.388977050781,136.765625 706.939758300781,138.19140625 703.060852050781,140.1875 699.916320800781,142.67578125 697.670227050781,145.578125 696.322570800781,148.89453125 695.873352050781,152.625 696.166320800781,156.234375 697.045227050781,159.4375 698.510070800781,162.234375 700.560852050781,164.625 703.408508300781,166.8046875 707.263977050781,168.96875 712.127258300781,171.1171875 717.998352050781,173.25 728.248352050781,176.75 736.299133300781,179.79296875 743.201477050781,183.046875 748.955383300781,186.51171875 753.560852050781,190.1875 757.088195800781,194.26171875 759.607727050781,198.921875 761.119445800781,204.16796875 761.623352050781,210 761.412414550781,214.2275390625 760.779602050781,218.22265625 759.724914550781,221.9853515625 758.248352050781,225.515625 756.349914550781,228.8134765625 754.029602050781,231.87890625 751.287414550781,234.7119140625 748.123352050781,237.3125 740.928039550781,241.66015625 732.842102050781,244.765625 723.865539550781,246.62890625 713.998352050781,247.25 704.443664550781,246.765625 694.779602050781,245.3125 685.006164550781,242.890625 675.123352050781,239.5 678.967102050781,223.4375 681.998352050781,207.75 686.873352050781,207 695.873352050781,233.875 699.678039550781,235.078125 703.967102050781,235.9375 708.740539550781,236.453125 713.998352050781,236.625 719.517883300781,236.328125 724.451477050781,235.4375 728.799133300781,233.953125 732.560852050781,231.875 735.596008300781,229.2578125 737.763977050781,226.15625 739.064758300781,222.5703125 739.498352050781,218.5 739.205383300781,214.7109375 738.326477050781,211.34375 736.861633300781,208.3984375 734.810852050781,205.875 732.119445800781,203.640625 728.732727050781,201.5625 724.650695800781,199.640625 719.873352050781,197.875 706.873352050781,193.5 699.088195800781,190.54296875 692.607727050781,187.296875 687.431945800781,183.76171875 683.560852050781,179.9375 680.744445800781,175.73046875 678.732727050781,171.046875 677.525695800781,165.88671875 677.123352050781,160.25 677.317687988281,156.2646484375 677.900695800781,152.49609375 678.872375488281,148.9443359375 680.232727050781,145.609375 681.981750488281,142.4912109375 684.119445800781,139.58984375 686.645812988281,136.9052734375 689.560852050781,134.4375 696.275695800781,130.30859375 703.982727050781,127.359375 712.681945800781,125.58984375 722.373352050781,125z" />
  </g>
</svg>

